<?xml version="1.0" encoding="UTF-8" standalone="no"?>
<!-- Created with Inkscape (http://www.inkscape.org/) -->

<svg
   xmlns:dc="http://purl.org/dc/elements/1.1/"
   xmlns:cc="http://creativecommons.org/ns#"
   xmlns:rdf="http://www.w3.org/1999/02/22-rdf-syntax-ns#"
   xmlns:svg="http://www.w3.org/2000/svg"
   xmlns="http://www.w3.org/2000/svg"
   xmlns:xlink="http://www.w3.org/1999/xlink"
   xmlns:sodipodi="http://sodipodi.sourceforge.net/DTD/sodipodi-0.dtd"
   xmlns:inkscape="http://www.inkscape.org/namespaces/inkscape"
   id="svg5296"
   sodipodi:docname="mcol-money-bag.svg"
   viewBox="0 0 55.999 65.645"
   sodipodi:version="0.32"
   version="1.0"
   inkscape:output_extension="org.inkscape.output.svg.inkscape"
   inkscape:version="0.92.5 (2060ec1f9f, 2020-04-08)">
  <metadata
     id="metadata19">
    <rdf:RDF>
      <cc:Work
         rdf:about="">
        <dc:format>image/svg+xml</dc:format>
        <dc:type
           rdf:resource="http://purl.org/dc/dcmitype/StillImage" />
      </cc:Work>
    </rdf:RDF>
  </metadata>
  <defs
     id="defs17">
    <radialGradient
       gradientTransform="matrix(2.5904762,0,0,2.5904762,217.33549,-212.03434)"
       r="6.4910736"
       fy="348.52448"
       fx="66.750519"
       cy="348.52448"
       cx="66.750519"
       gradientUnits="userSpaceOnUse"
       id="radialGradient58276"
       xlink:href="#linearGradient7872"
       inkscape:collect="always" />
    <linearGradient
       id="linearGradient7872">
      <stop
         id="stop7874"
         offset="0"
         style="stop-color:#30b820;stop-opacity:1;" />
      <stop
         id="stop7876"
         offset="1"
         style="stop-color:#f5f1f1;stop-opacity:0.84444445;" />
    </linearGradient>
    <radialGradient
       gradientTransform="matrix(2.5904762,0,0,2.5904762,211.92785,-179.58851)"
       r="6.4910736"
       fy="348.52448"
       fx="66.750519"
       cy="348.52448"
       cx="66.750519"
       gradientUnits="userSpaceOnUse"
       id="radialGradient58278"
       xlink:href="#linearGradient7872"
       inkscape:collect="always" />
    <radialGradient
       gradientTransform="matrix(2.5904762,0,0,2.5904762,210.12531,-147.14269)"
       r="6.4910736"
       fy="348.52448"
       fx="66.750519"
       cy="348.52448"
       cx="66.750519"
       gradientUnits="userSpaceOnUse"
       id="radialGradient58280"
       xlink:href="#linearGradient7872"
       inkscape:collect="always" />
    <radialGradient
       gradientTransform="matrix(2.5904762,0,0,2.5904762,242.57114,-233.66487)"
       r="6.4910736"
       fy="348.52448"
       fx="66.750519"
       cy="348.52448"
       cx="66.750519"
       gradientUnits="userSpaceOnUse"
       id="radialGradient58282"
       xlink:href="#linearGradient7872"
       inkscape:collect="always" />
    <radialGradient
       gradientTransform="matrix(2.5904762,0,0,2.5904762,242.57114,-206.62669)"
       r="6.4910736"
       fy="348.52448"
       fx="66.750519"
       cy="348.52448"
       cx="66.750519"
       gradientUnits="userSpaceOnUse"
       id="radialGradient58284"
       xlink:href="#linearGradient7872"
       inkscape:collect="always" />
    <radialGradient
       gradientTransform="matrix(2.5904762,0,0,2.5904762,233.55841,-177.78596)"
       r="6.4910736"
       fy="348.52448"
       fx="66.750519"
       cy="348.52448"
       cx="66.750519"
       gradientUnits="userSpaceOnUse"
       id="radialGradient58286"
       xlink:href="#linearGradient7872"
       inkscape:collect="always" />
    <radialGradient
       gradientTransform="matrix(2.5904762,0,0,2.5904762,237.1635,-152.55033)"
       r="6.4910736"
       fy="348.52448"
       fx="66.750519"
       cy="348.52448"
       cx="66.750519"
       gradientUnits="userSpaceOnUse"
       id="radialGradient58288"
       xlink:href="#linearGradient7872"
       inkscape:collect="always" />
    <radialGradient
       gradientTransform="matrix(2.5904762,0,0,2.5904762,211.92786,-120.1045)"
       r="6.4910736"
       fy="348.52448"
       fx="66.750519"
       cy="348.52448"
       cx="66.750519"
       gradientUnits="userSpaceOnUse"
       id="radialGradient58290"
       xlink:href="#linearGradient7872"
       inkscape:collect="always" />
    <radialGradient
       gradientTransform="matrix(2.5904762,0,0,2.5904762,233.55841,-107.48668)"
       r="6.4910736"
       fy="348.52448"
       fx="66.750519"
       cy="348.52448"
       cx="66.750519"
       gradientUnits="userSpaceOnUse"
       id="radialGradient58292"
       xlink:href="#linearGradient7872"
       inkscape:collect="always" />
    <radialGradient
       gradientTransform="matrix(2.5904762,0,0,2.5904762,210.12532,-93.066313)"
       r="6.4910736"
       fy="348.52448"
       fx="66.750519"
       cy="348.52448"
       cx="66.750519"
       gradientUnits="userSpaceOnUse"
       id="radialGradient58294"
       xlink:href="#linearGradient7872"
       inkscape:collect="always" />
    <radialGradient
       gradientTransform="matrix(2.5904762,0,0,2.5904762,240.7686,-129.11723)"
       r="6.4910736"
       fy="348.52448"
       fx="66.750519"
       cy="348.52448"
       cx="66.750519"
       gradientUnits="userSpaceOnUse"
       id="radialGradient58296"
       xlink:href="#linearGradient7872"
       inkscape:collect="always" />
    <radialGradient
       gradientTransform="matrix(2.5904762,0,0,2.5904762,271.41187,-237.26996)"
       r="6.4910736"
       fy="348.52448"
       fx="66.750519"
       cy="348.52448"
       cx="66.750519"
       gradientUnits="userSpaceOnUse"
       id="radialGradient58298"
       xlink:href="#linearGradient7872"
       inkscape:collect="always" />
    <radialGradient
       gradientTransform="matrix(2.5904762,0,0,2.5904762,267.80678,-210.23178)"
       r="6.4910736"
       fy="348.52448"
       fx="66.750519"
       cy="348.52448"
       cx="66.750519"
       gradientUnits="userSpaceOnUse"
       id="radialGradient58300"
       xlink:href="#linearGradient7872"
       inkscape:collect="always" />
    <radialGradient
       gradientTransform="matrix(2.5904762,0,0,2.5904762,262.39915,-177.78595)"
       r="6.4910736"
       fy="348.52448"
       fx="66.750519"
       cy="348.52448"
       cx="66.750519"
       gradientUnits="userSpaceOnUse"
       id="radialGradient58302"
       xlink:href="#linearGradient7872"
       inkscape:collect="always" />
    <radialGradient
       gradientTransform="matrix(2.5904762,0,0,2.5904762,267.80678,-147.14268)"
       r="6.4910736"
       fy="348.52448"
       fx="66.750519"
       cy="348.52448"
       cx="66.750519"
       gradientUnits="userSpaceOnUse"
       id="radialGradient58304"
       xlink:href="#linearGradient7872"
       inkscape:collect="always" />
    <radialGradient
       gradientTransform="matrix(2.5904762,0,0,2.5904762,289.43733,-235.46741)"
       r="6.4910736"
       fy="348.52448"
       fx="66.750519"
       cy="348.52448"
       cx="66.750519"
       gradientUnits="userSpaceOnUse"
       id="radialGradient58306"
       xlink:href="#linearGradient7872"
       inkscape:collect="always" />
    <radialGradient
       gradientTransform="matrix(2.5904762,0,0,2.5904762,228.15078,-226.45469)"
       r="6.4910736"
       fy="348.52448"
       fx="66.750519"
       cy="348.52448"
       cx="66.750519"
       gradientUnits="userSpaceOnUse"
       id="radialGradient58308"
       xlink:href="#linearGradient7872"
       inkscape:collect="always" />
    <radialGradient
       gradientTransform="matrix(2.5904762,0,0,2.5904762,294.84497,-208.42924)"
       r="6.4910736"
       fy="348.52448"
       fx="66.750519"
       cy="348.52448"
       cx="66.750519"
       gradientUnits="userSpaceOnUse"
       id="radialGradient58310"
       xlink:href="#linearGradient7872"
       inkscape:collect="always" />
    <radialGradient
       gradientTransform="matrix(2.5904762,0,0,2.5904762,312.87042,-228.25724)"
       r="6.4910736"
       fy="348.52448"
       fx="66.750519"
       cy="348.52448"
       cx="66.750519"
       gradientUnits="userSpaceOnUse"
       id="radialGradient58312"
       xlink:href="#linearGradient7872"
       inkscape:collect="always" />
    <radialGradient
       gradientTransform="matrix(2.5904762,0,0,2.5904762,327.29078,-208.42924)"
       r="6.4910736"
       fy="348.52448"
       fx="66.750519"
       cy="348.52448"
       cx="66.750519"
       gradientUnits="userSpaceOnUse"
       id="radialGradient58314"
       xlink:href="#linearGradient7872"
       inkscape:collect="always" />
    <radialGradient
       gradientTransform="matrix(2.5904762,0,0,2.5904762,287.63478,-183.1936)"
       r="6.4910736"
       fy="348.52448"
       fx="66.750519"
       cy="348.52448"
       cx="66.750519"
       gradientUnits="userSpaceOnUse"
       id="radialGradient58316"
       xlink:href="#linearGradient7872"
       inkscape:collect="always" />
    <radialGradient
       gradientTransform="matrix(2.5904762,0,0,2.5904762,314.67297,-183.1936)"
       r="6.4910736"
       fy="348.52448"
       fx="66.750519"
       cy="348.52448"
       cx="66.750519"
       gradientUnits="userSpaceOnUse"
       id="radialGradient58318"
       xlink:href="#linearGradient7872"
       inkscape:collect="always" />
    <radialGradient
       gradientTransform="matrix(2.5904762,0,0,2.5904762,330.89588,-183.1936)"
       r="6.4910736"
       fy="348.52448"
       fx="66.750519"
       cy="348.52448"
       cx="66.750519"
       gradientUnits="userSpaceOnUse"
       id="radialGradient58320"
       xlink:href="#linearGradient7872"
       inkscape:collect="always" />
    <radialGradient
       gradientTransform="matrix(2.5904762,0,0,2.5904762,330.89588,-156.15541)"
       r="6.4910736"
       fy="348.52448"
       fx="66.750519"
       cy="348.52448"
       cx="66.750519"
       gradientUnits="userSpaceOnUse"
       id="radialGradient58322"
       xlink:href="#linearGradient7872"
       inkscape:collect="always" />
    <radialGradient
       gradientTransform="matrix(2.5904762,0,0,2.5904762,305.66025,-156.15541)"
       r="6.4910736"
       fy="348.52448"
       fx="66.750519"
       cy="348.52448"
       cx="66.750519"
       gradientUnits="userSpaceOnUse"
       id="radialGradient58324"
       xlink:href="#linearGradient7872"
       inkscape:collect="always" />
    <radialGradient
       gradientTransform="matrix(2.5904762,0,0,2.5904762,282.22716,-157.95796)"
       r="6.4910736"
       fy="348.52448"
       fx="66.750519"
       cy="348.52448"
       cx="66.750519"
       gradientUnits="userSpaceOnUse"
       id="radialGradient58326"
       xlink:href="#linearGradient7872"
       inkscape:collect="always" />
    <radialGradient
       gradientTransform="matrix(2.5904762,0,0,2.5904762,269.60933,-125.51214)"
       r="6.4910736"
       fy="348.52448"
       fx="66.750519"
       cy="348.52448"
       cx="66.750519"
       gradientUnits="userSpaceOnUse"
       id="radialGradient58328"
       xlink:href="#linearGradient7872"
       inkscape:collect="always" />
    <radialGradient
       gradientTransform="matrix(2.5904762,0,0,2.5904762,294.84497,-129.11723)"
       r="6.4910736"
       fy="348.52448"
       fx="66.750519"
       cy="348.52448"
       cx="66.750519"
       gradientUnits="userSpaceOnUse"
       id="radialGradient58330"
       xlink:href="#linearGradient7872"
       inkscape:collect="always" />
    <radialGradient
       gradientTransform="matrix(2.5904762,0,0,2.5904762,323.6857,-132.72231)"
       r="6.4910736"
       fy="348.52448"
       fx="66.750519"
       cy="348.52448"
       cx="66.750519"
       gradientUnits="userSpaceOnUse"
       id="radialGradient58332"
       xlink:href="#linearGradient7872"
       inkscape:collect="always" />
    <radialGradient
       gradientTransform="matrix(2.5904762,0,0,2.5904762,332.69842,-129.11723)"
       r="6.4910736"
       fy="348.52448"
       fx="66.750519"
       cy="348.52448"
       cx="66.750519"
       gradientUnits="userSpaceOnUse"
       id="radialGradient58334"
       xlink:href="#linearGradient7872"
       inkscape:collect="always" />
    <radialGradient
       gradientTransform="matrix(2.5904762,0,0,2.5904762,332.69842,-102.07904)"
       r="6.4910736"
       fy="348.52448"
       fx="66.750519"
       cy="348.52448"
       cx="66.750519"
       gradientUnits="userSpaceOnUse"
       id="radialGradient58336"
       xlink:href="#linearGradient7872"
       inkscape:collect="always" />
    <radialGradient
       gradientTransform="matrix(2.5904762,0,0,2.5904762,307.46278,-107.48668)"
       r="6.4910736"
       fy="348.52448"
       fx="66.750519"
       cy="348.52448"
       cx="66.750519"
       gradientUnits="userSpaceOnUse"
       id="radialGradient58338"
       xlink:href="#linearGradient7872"
       inkscape:collect="always" />
    <radialGradient
       gradientTransform="matrix(2.5904762,0,0,2.5904762,287.63478,-111.09177)"
       r="6.4910736"
       fy="348.52448"
       fx="66.750519"
       cy="348.52448"
       cx="66.750519"
       gradientUnits="userSpaceOnUse"
       id="radialGradient58340"
       xlink:href="#linearGradient7872"
       inkscape:collect="always" />
    <radialGradient
       gradientTransform="matrix(2.5904762,0,0,2.5904762,256.99151,-109.28922)"
       r="6.4910736"
       fy="348.52448"
       fx="66.750519"
       cy="348.52448"
       cx="66.750519"
       gradientUnits="userSpaceOnUse"
       id="radialGradient58342"
       xlink:href="#linearGradient7872"
       inkscape:collect="always" />
    <radialGradient
       gradientTransform="matrix(2.5904762,0,0,2.5904762,256.99151,-109.28922)"
       r="6.4910736"
       fy="348.52448"
       fx="66.750519"
       cy="348.52448"
       cx="66.750519"
       gradientUnits="userSpaceOnUse"
       id="radialGradient58344"
       xlink:href="#linearGradient7872"
       inkscape:collect="always" />
    <linearGradient
       gradientTransform="scale(1.0666667)"
       y2="849.57336"
       x2="343.65808"
       y1="878.30139"
       x1="492.09683"
       gradientUnits="userSpaceOnUse"
       id="linearGradient58346"
       xlink:href="#linearGradient8014"
       inkscape:collect="always" />
    <linearGradient
       id="linearGradient8014">
      <stop
         id="stop8016"
         offset="0"
         style="stop-color:#ab1414;stop-opacity:1;" />
      <stop
         id="stop8018"
         offset="1"
         style="stop-color:#fb2432;stop-opacity:0.93888891;" />
    </linearGradient>
    <linearGradient
       y2="366.95038"
       x2="986.45001"
       y1="461.58401"
       x1="1083.4863"
       gradientTransform="matrix(1.2096447,0,0,1.0666667,-767.96903,495.70003)"
       gradientUnits="userSpaceOnUse"
       id="linearGradient58348"
       xlink:href="#linearGradient7848"
       inkscape:collect="always" />
    <linearGradient
       id="linearGradient7848">
      <stop
         id="stop7850"
         offset="0"
         style="stop-color:#871c1c;stop-opacity:1;" />
      <stop
         id="stop7852"
         offset="1"
         style="stop-color:#871c1c;stop-opacity:0;" />
    </linearGradient>
    <linearGradient
       y2="366.95038"
       x2="986.45001"
       y1="461.58401"
       x1="1083.4863"
       gradientTransform="matrix(-1.0666667,0,0,-1.0666667,1504.9395,1163.1646)"
       gradientUnits="userSpaceOnUse"
       id="linearGradient58350"
       xlink:href="#linearGradient7864"
       inkscape:collect="always" />
    <linearGradient
       id="linearGradient7864">
      <stop
         style="stop-color:#ffffff;stop-opacity:1;"
         offset="0"
         id="stop7866" />
      <stop
         style="stop-color:#ffffff;stop-opacity:0;"
         offset="1"
         id="stop7868" />
    </linearGradient>
    <radialGradient
       inkscape:collect="always"
       xlink:href="#linearGradient8024"
       id="radialGradient12868"
       gradientUnits="userSpaceOnUse"
       gradientTransform="matrix(3.09672,-0.14407176,-0.39422376,8.6864031,-429.05408,-6264.5286)"
       cx="360.79077"
       cy="822.53766"
       fx="360.79077"
       fy="822.53766"
       r="11.14494" />
    <linearGradient
       id="linearGradient8024"
       inkscape:collect="always">
      <stop
         id="stop8026"
         offset="0"
         style="stop-color:#d3e2cd;stop-opacity:1;" />
      <stop
         id="stop8028"
         offset="1"
         style="stop-color:#d3e2cd;stop-opacity:0;" />
    </linearGradient>
    <filter
       height="1.0840795"
       y="-0.042039752"
       width="20.631063"
       x="-9.8155317"
       id="filter8038"
       inkscape:collect="always"
       style="color-interpolation-filters:sRGB">
      <feGaussianBlur
         id="feGaussianBlur8040"
         stdDeviation="1.364727"
         inkscape:collect="always" />
    </filter>
  </defs>
  <sodipodi:namedview
     id="base"
     bordercolor="#666666"
     inkscape:pageshadow="2"
     inkscape:window-y="0"
     pagecolor="#ffffff"
     inkscape:window-height="2011"
     inkscape:zoom="23.0938"
     inkscape:window-x="0"
     borderopacity="1.0"
     inkscape:current-layer="layer1"
     inkscape:cx="31.695276"
     inkscape:cy="31.590952"
     inkscape:window-width="3840"
     inkscape:pageopacity="0.0"
     inkscape:document-units="px"
     showgrid="false"
     inkscape:window-maximized="1" />
  <g
     id="layer1"
     inkscape:label="Livello 1"
     inkscape:groupmode="layer"
     transform="translate(-253.68 -559.11)">
    <g
       id="g4876"
       transform="matrix(.85924 0 0 .85924 253.51 380.99)">
      <g
         id="g4804">
        <path
           style="fill:#c17d11"
           sodipodi:nodetypes="csssc"
           transform="matrix(1.2488 0 0 1.1435 42.71 -15.942)"
           d="m17.766 235.78c0 14.6-10.683 25.39-24.641 25.39s-27.035-11.97-25.286-26.45c1.614-13.37 11.214-27.07 25.172-26.95 14.072 0.12 24.593 13.25 24.755 28.01z"
           id="path3" />
        <path
           style="fill-rule:evenodd;stroke:#000000;stroke-width:1px;fill:#c17d11"
           d="m28.5 220.59c-1.5-2.25-9-9.75-9-9.75l13.75 1-3 3.5 2.5 1.25 9.25-3 4.25 1 6.25-2-6.75 8-4.25 2-13-2z"
           id="path5" />
        <path
           style="fill-rule:evenodd;fill:#8f5902"
           d="m22.25 210.59l8.75-2.75 1.75 2.25 10.471-1.69-2.221 2.69 0.75 0.9 7.5-3.15 3.75 0.25 1 2-2 2.25-5.75 1.25-3.75-1.25-10 3.25-2.25-1.25 3.5-3.75-11.5-1z"
           id="path7" />
        <path
           style="fill-rule:evenodd;stroke:#000000;stroke-width:0.6;fill:#edd400"
           d="m25.698 223.01c0.265-0.35 2.321-2.13 2.321-2.13l13.877 1.72 12.993-4.06 3.536 0.66-0.663 2.08-12.551 1.37-4.287 1.99-15.226-1.63z"
           id="path9" />
      </g>
      <path
         style="fill-rule:evenodd"
         d="m44.632 209.14c-0.75 0.83-1.775 1.36-2.822 1.72 0.495 0.64 1.297 0.05 1.882-0.11 2.059-0.77 3.977-2.1 6.237-2.19 1.02-0.06 2.05-0.09 3.068-0.03 1.478 0.44 2.3 2.42 1.432 3.74-0.579 0.46-1.151 0.91-1.473 1.57-0.558 0.29-1.044 0.67-1.243 1.27-0.594 0.24-1.126 0.53-1.405 1.14-1.073 1.36-2.581 2.34-3.514 3.82-0.024 0.52 0.87 0.01 1.124-0.14 0.619-0.46 1.356-0.76 2.136-0.71 0.669-0.17 1.228-0.64 1.928-0.74 1.767-0.41 3.594-0.66 5.41-0.54 0.878 0.1 1.95 0.22 2.455 1.05 0.375 0.57 0.105 1.36-0.478 1.67-0.534 0.35-1.224 0.45-1.656 0.96-0.32 0.34-0.757 0.64-1.249 0.54-0.717 0.05-1.305 0.57-2.033 0.58-2.649 0.34-5.34-0.29-7.974 0.25-0.318 0.09-1.202-0.57-1.049 0.04 0.418 0.43 1.121 0.45 1.467 0.96 0.476 0.48 1.08 0.66 1.694 0.81 0.672 0.39 1.252 0.91 1.898 1.34 2.459 1.8 4.84 3.77 6.708 6.2 4.779 4.6 6.299 8 6.577 12.69 0.334 0.5 0.563 1.06 0.472 1.66 0.162 0.63 0.681 1.12 0.722 1.79 0.303 1.75 0.006 3.53 0.256 5.28 0.208 2.07 0.275 4.18-0.107 6.23-0.194 0.97-0.254 1.99-0.626 2.91-0.272 0.62-0.788 1.13-0.851 1.83-0.135 0.88-0.139 1.8-0.602 2.58-0.749 1.47-2.039 2.63-2.549 4.23-1.069 0.46-1.738 1.48-2.678 2.12-4.432 3.75-9.425 6.97-15.005 8.69-5.546 1.74-11.555 1.73-17.181 0.36-5.426-1.3-10.534-3.69-15.324-6.52-1.1524-0.56-1.5954-1.97-2.8049-2.46-1.6628-2.28-3.8417-4.25-4.9322-6.91-0.4004-0.62-0.2383-1.56-0.9402-1.99-1.3099-5.6-1.8224-8.5-1.0262-13.2-0.05829-0.76 0.00745-1.53 0.40848-2.19 0.36692-0.96 0.60022-1.97 0.68902-2.99 0.6882-0.57 1.0323-1.47 1.0975-2.35 0.7003-0.37 0.8296-1.21 1.0975-1.88 0.0109-0.46-0.1529-1.42 0.5293-1.41 0.7223 0.14 1.0383-0.82 1.297-1.34 0.3368-0.49 0.9675-0.73 1.1098-1.38 0.2245-0.61 0.796-0.9 1.243-1.31 0.5389-0.64 0.7815-1.49 1.3421-2.12 0.6738-0.83 1.4628-1.56 1.9928-2.5 0.28-0.46 0.887-0.47 1.177-0.93 0.379-0.42 0.736-0.89 1.259-1.14 0.531-0.41 0.572-1.2 1.157-1.57 1.134-0.85 2.237-1.74 3.414-2.53 2.212-1.51 4.697-3.27 7.4-3.54 2.97-0.34 6.016-0.44 8.973-0.19 1.89 0.2 3.715 0.72 5.62 0.61 0.678-0.14 3.973-1.58 4.68-1.53 0.857-0.07 0.026 2.42 0.511 1.61-1.107-0.15-3.878 0.73-4.939 0.86-0.657-0.39-1.376 0.7-2.054 0.55-4.114 0.21-8.832-2.83-12.381-1.2-0.803-0.51 0.086-3.12-0.505-3.85-0.549-0.72-1.105-1.46-1.826-2.02-0.718-0.07-0.826-0.89-1.174-1.37-0.957-1.44-2.442-2.41-3.461-3.8-0.113-0.67 0.077-1.38 0.512-1.9 0.795-0.16 1.601-0.27 2.386-0.49 3.173-0.75 6.309-1.81 9.59-1.98 0.693 0.21 0.69 1.26 1.452 1.36 0.787 0 1.531-0.32 2.289-0.49 2.222-0.68 4.508-1.57 6.875-1.25 1.007 0.15 1.964 0.77 2.295 1.77zm-11.916 1.57c-0.52-0.49-1.169-0.81-1.724-1.26-2.557 0.2-4.965 1.25-7.526 1.41-0.218 0.59-1.403 0.22-1.331 0.95 3.634 0.26 7.202-1 10.835-0.63 0.861 0.12 1.728 0.39 2.412 0.94 0.192 0.89-0.007 1.93 0.617 2.68 0.677 0.15 1.176-0.53 1.827-0.6 0.663-0.28 1.352-0.82 1.342-1.61 0.179-1.19 1.266-1.92 2.23-2.48 0.252-0.2 1.042-0.54 0.857-0.81-3.224 0.13-6.333 1.12-9.539 1.41zm18.344-0.79c-1.083 0.04-2.175 0.1-3.234 0.35-0.566 0.59-1.44 0.54-2.186 0.55-0.688 0.2-1.229 0.76-1.959 0.83-0.679 0.19-1.373 0.35-2.028 0.62-0.586-0.05-1.778-0.16-1.606 0.76 0.386 0.45 1.026 0.01 1.476-0.13 0.509-0.19 1.084-0.46 1.626-0.29 0.597 0.38 0.762 1.29 1.524 1.44 1.293 0.14 2.458-0.65 3.742-0.6 0.585-0.01 1.193-0.13 1.647-0.52 0.618-0.4 1.353-0.51 2.053-0.67 0.596-0.21 1.213-0.61 1.431-1.22 0.035-0.74-0.792-1.14-1.436-1.12-0.35-0.02-0.7 0-1.05 0zm-23.988 3.14c-1.324 0.09-2.726-0.53-3.985 0.11-0.453 0.49 0.616 0.81 0.803 1.24 0.615 0.63 1.269 1.26 2.085 1.63-0.104 0.78 0.866 0.92 1.256 1.42 1.183 1.17 2.029 2.76 3.596 3.48 0.639 0.28 1.357 0.37 2.046 0.27-1.557-1.23-2.487-3.04-3.919-4.39-0.172-0.83-0.885-1.6-0.591-2.5 0.235-0.7 1.084-0.91 1.375-1.58-0.899 0.02-1.771 0.27-2.666 0.32zm3.136 2.19c1.367 0.59 2.899 0.33 4.299 0.02 0.636-0.23-0.081-0.89 0.08-1.37-0.129-0.79-1.15-0.29-1.678-0.29-1.063 0.23-1.957 0.87-2.701 1.64zm10.504-0.47c-0.122 0.59-0.805 0.58-1.277 0.64-0.558 0.08-0.915 0.58-1.418 0.8-1.7 0.92-3.649 1.18-5.536 1.43-0.306 0.09-1.199-0.03-0.607 0.4 0.849 0.88 2 1.57 2.402 2.79-0.041 0.61 0.354 1.3 1.041 1.06 2.906 0.2 5.918 0.34 8.709-0.64 0.572-0.37 0.925-0.98 1.432-1.42 1.557-1.63 3.133-3.24 4.662-4.9-2.417 0.45-4.959 0.86-7.369 0.16-1.201 0.79-1.308 2.35-2.017 3.49-0.482 0.46-0.667 1.08-0.925 1.63-0.531 0.54-1.308 0.03-0.875-0.63 0.258-0.86 0.897-1.53 1.333-2.3 0.091-0.7 0.545-1.19 0.93-1.72 0.116-0.35 0.423-1-0.216-0.79-0.089 0.01-0.18 0.02-0.269 0zm7.996 6.27c1.607 0.53 3.27-0.05 4.861-0.34 0.909-0.2 1.79-0.42 2.695-0.64 0.311-0.07 1.263-0.5 0.773-0.74-2.593 0.02-5.29 0.16-7.663 1.3-0.232 0.13-0.456 0.27-0.666 0.42zm4.547 9.41c0.059-0.51-0.445-0.77-0.788-0.89-0.314-0.64-0.925-1.01-1.574-1.22-0.661-0.42-0.901-1.34-1.718-1.54-0.63-0.24-1.198-0.62-1.769-0.96-0.688-0.22-1.176-0.76-1.596-1.31-0.402-0.62-1.275-0.89-1.832-0.31-0.465 0.43-1.041 0.68-1.66 0.77-1.785 0.33-3.609 0.12-5.404 0-1.533-0.14-3.074-0.19-4.603-0.37-1.975-0.27-3.922-0.81-5.709-1.69-0.537 0.41-1.072 0.87-1.725 1.09-1.023 1.33-2.559 2.17-3.449 3.61-0.729 0.05-1.162 0.83-1.822 1.03-1.731 1.71-3.227 3.65-5.077 5.24-0.151 0.92-1.13 1.3-1.579 2.03-1.031 1.4-1.909 2.89-2.9884 4.25-0.9641 1.26-2.0415 2.45-2.8549 3.81 0.0406 0.49 0.6646 0.91 0.164 1.42-0.379 0.8-0.9498 1.47-1.5213 2.13-0.1013 1.37-0.849 0.95-1.0829 3.91-0.4817 4.77-1.5351 7.53 1.1394 13.98 0.4835 0.48 0.7514 1.12 1.045 1.73 0.2429 0.66 0.8498 1.02 1.3928 1.34 0.1671 0.57 0.4509 1.15 1.1325 1.08 0.6888 0.28 0.5855 1.15 0.8608 1.73 0.361 0.62 1.125 0.8 1.682 1.2 0.946 0.55 1.8 1.23 2.73 1.8 0.786 0.4 1.703 0.63 2.311 1.31 0.83 0.73 1.995 0.79 2.917 1.35 0.421 0.64 1.277 0.31 1.878 0.57 0.767 0.78 1.889 0.97 2.892 1.28 1.663 0.43 3.38 0.6 5.091 0.71 0.914 0.78 2.207 0.65 3.327 0.6 0.657-0.2 1.164 0.35 1.767 0.34 0.943 0.05 1.887 0 2.82-0.15 0.916-0.13 1.845-0.23 2.769-0.14 1.034-0.06 1.926-0.88 2.994-0.66 2.213 0.01 4.074-1.45 6.234-1.72 0.621-0.74 1.578-1.1 2.509-1.25 0.744-0.82 1.815-1.19 2.77-1.69 0.374-0.65 0.861-1.23 1.482-1.66 0.812-0.67 1.688-1.32 2.243-2.24 0.052-0.55 0.744-0.72 0.77-1.3 0.244-0.66 0.531-1.36 1.142-1.76 0.458-0.5 0.348-1.27 0.794-1.79 0.437-0.41 0.528-0.88 0.58-1.44 0.409-0.36 0.608-0.82 0.699-1.38 0.161-0.78 0.467-1.52 0.745-2.26 0.385-1.06 0.447-2.2 0.642-3.3 0.339-2.56-0.063-5.14-0.29-7.69-0.06-1.04-0.23-2.06-0.544-3.05-3.643-6.99 2.661-1.62-5.804-12.48-0.462-0.44-0.989-0.9-1.153-1.55-0.898-0.95-2.044-1.6-2.979-2.51z"
         id="path12" />
    </g>
    <g
       transform="matrix(1.6722381,0,0,2.3230149,265.5754,-74.201564)"
       id="layer1-6"
       inkscape:label="Ebene 1">
      <g
         style="stroke-width:1.31944025"
         id="g58194"
         transform="matrix(0.0276038,0.04236589,-0.04825895,0.02819628,38.00156,247.22493)">
        <path
           style="fill:none;stroke:#141414;stroke-width:4.37074757;stroke-miterlimit:4;stroke-dasharray:none;stroke-opacity:1"
           d="m 434.4834,647.55482 c -37.99938,0 -68.56666,30.56728 -68.56666,68.56666 v 102.06667 c 22.69525,-10.59395 48.15433,-16.53333 75.03333,-16.53333 29.2714,0 56.82968,7.038 81,19.46666 v -105 c 0,-37.99938 -30.60062,-68.56666 -68.6,-68.56666 z"
           id="path58196"
           inkscape:connector-curvature="0" />
        <circle
           id="path58198"
           style="fill:url(#radialGradient58276);fill-opacity:1;stroke:#585858;stroke-width:4.53262854;stroke-linecap:round;stroke-miterlimit:4;stroke-dasharray:none;stroke-opacity:1"
           cx="390.25113"
           cy="690.81"
           r="15.321637" />
        <circle
           style="fill:url(#radialGradient58278);fill-opacity:1;stroke:#585858;stroke-width:4.53262854;stroke-linecap:round;stroke-miterlimit:4;stroke-dasharray:none;stroke-opacity:1"
           id="path58200"
           cx="384.84348"
           cy="723.25586"
           r="15.321637" />
        <circle
           id="path58202"
           style="fill:url(#radialGradient58280);fill-opacity:1;stroke:#585858;stroke-width:4.53262854;stroke-linecap:round;stroke-miterlimit:4;stroke-dasharray:none;stroke-opacity:1"
           cx="383.04095"
           cy="755.70166"
           r="15.321637" />
        <circle
           style="fill:url(#radialGradient58282);fill-opacity:1;stroke:#585858;stroke-width:4.53262854;stroke-linecap:round;stroke-miterlimit:4;stroke-dasharray:none;stroke-opacity:1"
           id="path58204"
           cx="415.48676"
           cy="669.17944"
           r="15.321637" />
        <circle
           id="path58206"
           style="fill:url(#radialGradient58284);fill-opacity:1;stroke:#585858;stroke-width:4.53262854;stroke-linecap:round;stroke-miterlimit:4;stroke-dasharray:none;stroke-opacity:1"
           cx="415.48676"
           cy="696.21765"
           r="15.321637" />
        <circle
           style="fill:url(#radialGradient58286);fill-opacity:1;stroke:#585858;stroke-width:4.53262854;stroke-linecap:round;stroke-miterlimit:4;stroke-dasharray:none;stroke-opacity:1"
           id="path58208"
           cx="406.47403"
           cy="725.05841"
           r="15.321637" />
        <circle
           id="path58210"
           style="fill:url(#radialGradient58288);fill-opacity:1;stroke:#585858;stroke-width:4.53262854;stroke-linecap:round;stroke-miterlimit:4;stroke-dasharray:none;stroke-opacity:1"
           cx="410.07913"
           cy="750.29401"
           r="15.321637" />
        <circle
           style="fill:url(#radialGradient58290);fill-opacity:1;stroke:#585858;stroke-width:4.53262854;stroke-linecap:round;stroke-miterlimit:4;stroke-dasharray:none;stroke-opacity:1"
           id="path58212"
           cx="384.84348"
           cy="782.73987"
           r="15.321637" />
        <circle
           id="path58214"
           style="fill:url(#radialGradient58292);fill-opacity:1;stroke:#585858;stroke-width:4.53262854;stroke-linecap:round;stroke-miterlimit:4;stroke-dasharray:none;stroke-opacity:1"
           cx="406.47403"
           cy="795.35767"
           r="15.321637" />
        <circle
           style="fill:url(#radialGradient58294);fill-opacity:1;stroke:#585858;stroke-width:4.53262854;stroke-linecap:round;stroke-miterlimit:4;stroke-dasharray:none;stroke-opacity:1"
           id="path58216"
           cx="383.04095"
           cy="809.77802"
           r="15.321637" />
        <circle
           id="path58218"
           style="fill:url(#radialGradient58296);fill-opacity:1;stroke:#585858;stroke-width:4.53262854;stroke-linecap:round;stroke-miterlimit:4;stroke-dasharray:none;stroke-opacity:1"
           cx="413.68423"
           cy="773.72711"
           r="15.321637" />
        <circle
           style="fill:url(#radialGradient58298);fill-opacity:1;stroke:#585858;stroke-width:4.53262854;stroke-linecap:round;stroke-miterlimit:4;stroke-dasharray:none;stroke-opacity:1"
           id="path58220"
           cx="444.32751"
           cy="665.5744"
           r="15.321637" />
        <circle
           id="path58222"
           style="fill:url(#radialGradient58300);fill-opacity:1;stroke:#585858;stroke-width:4.53262854;stroke-linecap:round;stroke-miterlimit:4;stroke-dasharray:none;stroke-opacity:1"
           cx="440.72241"
           cy="692.61255"
           r="15.321637" />
        <circle
           style="fill:url(#radialGradient58302);fill-opacity:1;stroke:#585858;stroke-width:4.53262854;stroke-linecap:round;stroke-miterlimit:4;stroke-dasharray:none;stroke-opacity:1"
           id="path58224"
           cx="435.31479"
           cy="725.05841"
           r="15.321637" />
        <circle
           id="path58226"
           style="fill:url(#radialGradient58304);fill-opacity:1;stroke:#585858;stroke-width:4.53262854;stroke-linecap:round;stroke-miterlimit:4;stroke-dasharray:none;stroke-opacity:1"
           cx="440.72241"
           cy="755.70166"
           r="15.321637" />
        <circle
           style="fill:url(#radialGradient58306);fill-opacity:1;stroke:#585858;stroke-width:4.53262854;stroke-linecap:round;stroke-miterlimit:4;stroke-dasharray:none;stroke-opacity:1"
           id="path58228"
           cx="462.35297"
           cy="667.37695"
           r="15.321637" />
        <circle
           id="path58230"
           style="fill:url(#radialGradient58308);fill-opacity:1;stroke:#585858;stroke-width:4.53262854;stroke-linecap:round;stroke-miterlimit:4;stroke-dasharray:none;stroke-opacity:1"
           cx="401.06641"
           cy="676.38965"
           r="15.321637" />
        <circle
           style="fill:url(#radialGradient58310);fill-opacity:1;stroke:#585858;stroke-width:4.53262854;stroke-linecap:round;stroke-miterlimit:4;stroke-dasharray:none;stroke-opacity:1"
           id="path58232"
           cx="467.76059"
           cy="694.4151"
           r="15.321637" />
        <circle
           id="path58234"
           style="fill:url(#radialGradient58312);fill-opacity:1;stroke:#585858;stroke-width:4.53262854;stroke-linecap:round;stroke-miterlimit:4;stroke-dasharray:none;stroke-opacity:1"
           cx="485.78604"
           cy="674.5871"
           r="15.321637" />
        <circle
           style="fill:url(#radialGradient58314);fill-opacity:1;stroke:#585858;stroke-width:4.53262854;stroke-linecap:round;stroke-miterlimit:4;stroke-dasharray:none;stroke-opacity:1"
           id="path58236"
           cx="500.20642"
           cy="694.4151"
           r="15.321637" />
        <circle
           id="path58238"
           style="fill:url(#radialGradient58316);fill-opacity:1;stroke:#585858;stroke-width:4.53262854;stroke-linecap:round;stroke-miterlimit:4;stroke-dasharray:none;stroke-opacity:1"
           cx="460.55042"
           cy="719.65076"
           r="15.321637" />
        <circle
           style="fill:url(#radialGradient58318);fill-opacity:1;stroke:#585858;stroke-width:4.53262854;stroke-linecap:round;stroke-miterlimit:4;stroke-dasharray:none;stroke-opacity:1"
           id="path58240"
           cx="487.58859"
           cy="719.65076"
           r="15.321637" />
        <circle
           id="path58242"
           style="fill:url(#radialGradient58320);fill-opacity:1;stroke:#585858;stroke-width:4.53262854;stroke-linecap:round;stroke-miterlimit:4;stroke-dasharray:none;stroke-opacity:1"
           cx="503.81152"
           cy="719.65076"
           r="15.321637" />
        <circle
           style="fill:url(#radialGradient58322);fill-opacity:1;stroke:#585858;stroke-width:4.53262854;stroke-linecap:round;stroke-miterlimit:4;stroke-dasharray:none;stroke-opacity:1"
           id="path58244"
           cx="503.81152"
           cy="746.6889"
           r="15.321637" />
        <circle
           id="path58246"
           style="fill:url(#radialGradient58324);fill-opacity:1;stroke:#585858;stroke-width:4.53262854;stroke-linecap:round;stroke-miterlimit:4;stroke-dasharray:none;stroke-opacity:1"
           cx="478.57587"
           cy="746.6889"
           r="15.321637" />
        <circle
           style="fill:url(#radialGradient58326);fill-opacity:1;stroke:#585858;stroke-width:4.53262854;stroke-linecap:round;stroke-miterlimit:4;stroke-dasharray:none;stroke-opacity:1"
           id="path58248"
           cx="455.14279"
           cy="744.88635"
           r="15.321637" />
        <circle
           id="path58250"
           style="fill:url(#radialGradient58328);fill-opacity:1;stroke:#585858;stroke-width:4.53262854;stroke-linecap:round;stroke-miterlimit:4;stroke-dasharray:none;stroke-opacity:1"
           cx="442.52496"
           cy="777.33221"
           r="15.321637" />
        <circle
           style="fill:url(#radialGradient58330);fill-opacity:1;stroke:#585858;stroke-width:4.53262854;stroke-linecap:round;stroke-miterlimit:4;stroke-dasharray:none;stroke-opacity:1"
           id="path58252"
           cx="467.76059"
           cy="773.72711"
           r="15.321637" />
        <circle
           id="path58254"
           style="fill:url(#radialGradient58332);fill-opacity:1;stroke:#585858;stroke-width:4.53262854;stroke-linecap:round;stroke-miterlimit:4;stroke-dasharray:none;stroke-opacity:1"
           cx="496.60132"
           cy="770.12201"
           r="15.321637" />
        <circle
           style="fill:url(#radialGradient58334);fill-opacity:1;stroke:#585858;stroke-width:4.53262854;stroke-linecap:round;stroke-miterlimit:4;stroke-dasharray:none;stroke-opacity:1"
           id="path58256"
           cx="505.61404"
           cy="773.72711"
           r="15.321637" />
        <circle
           id="path58258"
           style="fill:url(#radialGradient58336);fill-opacity:1;stroke:#585858;stroke-width:4.53262854;stroke-linecap:round;stroke-miterlimit:4;stroke-dasharray:none;stroke-opacity:1"
           cx="505.61404"
           cy="800.76532"
           r="15.321637" />
        <circle
           style="fill:url(#radialGradient58338);fill-opacity:1;stroke:#585858;stroke-width:4.53262854;stroke-linecap:round;stroke-miterlimit:4;stroke-dasharray:none;stroke-opacity:1"
           id="path58260"
           cx="480.37842"
           cy="795.35767"
           r="15.321637" />
        <circle
           id="path58262"
           style="fill:url(#radialGradient58340);fill-opacity:1;stroke:#585858;stroke-width:4.53262854;stroke-linecap:round;stroke-miterlimit:4;stroke-dasharray:none;stroke-opacity:1"
           cx="460.55042"
           cy="791.75256"
           r="15.321637" />
        <circle
           style="fill:url(#radialGradient58342);fill-opacity:1;stroke:#585858;stroke-width:4.53262854;stroke-linecap:round;stroke-miterlimit:4;stroke-dasharray:none;stroke-opacity:1"
           id="path58264"
           cx="429.90714"
           cy="793.55511"
           r="15.321637" />
        <circle
           id="path58266"
           style="fill:url(#radialGradient58344);fill-opacity:1;stroke:#585858;stroke-width:4.53262854;stroke-linecap:round;stroke-miterlimit:4;stroke-dasharray:none;stroke-opacity:1"
           cx="429.90714"
           cy="793.55511"
           r="15.321637" />
        <path
           sodipodi:nodetypes="scsssscs"
           inkscape:connector-curvature="0"
           id="path58268"
           d="m 440.95007,801.66667 c -26.879,0 -52.33808,5.93938 -75.03333,16.53333 v 131.16667 c 0,37.99938 30.56728,68.60003 68.56666,68.60003 h 18.86667 c 37.99938,0 68.6,-30.60065 68.6,-68.60003 V 821.13333 c -24.17032,-12.42866 -51.7286,-19.46666 -81,-19.46666 z"
           style="fill:url(#linearGradient58346);fill-opacity:1;stroke:#af2d2d;stroke-width:4.37074757;stroke-miterlimit:4;stroke-dasharray:none;stroke-opacity:1" />
        <path
           sodipodi:nodetypes="csssc"
           inkscape:connector-curvature="0"
           id="path58270"
           d="m 391.76011,962.08159 c 9.13698,16.35727 24.49461,27.03333 41.95954,27.03333 h 13.9487 c 28.15823,0 50.84295,-27.78399 50.84295,-62.3 V 810.34826"
           style="fill:none;stroke:url(#linearGradient58348);stroke-width:28.32892418;stroke-linecap:round;stroke-miterlimit:4;stroke-dasharray:none;stroke-opacity:1" />
        <path
           style="fill:none;stroke:url(#linearGradient58350);stroke-width:28.32892418;stroke-linecap:round;stroke-miterlimit:4;stroke-dasharray:none;stroke-opacity:1"
           d="m 482.28841,696.78303 c -8.05696,-16.35727 -21.59936,-27.03333 -37,-27.03333 h -12.29999 c -24.83,0 -44.83341,27.78399 -44.83341,62.3 v 116.46667"
           id="path58272"
           inkscape:connector-curvature="0"
           sodipodi:nodetypes="csssc" />
        <path
           inkscape:connector-curvature="0"
           id="path58274"
           d="m 364.11684,789.42985 -0.33369,77.91066"
           style="fill:#e4f2e1;fill-opacity:0.99790619;stroke:url(#radialGradient12868);stroke-width:31.26299095;stroke-linecap:round;stroke-linejoin:miter;stroke-miterlimit:4;stroke-dasharray:none;stroke-opacity:0.7692308;filter:url(#filter8038)"
           transform="scale(1.0666667)" />
      </g>
    </g>
  </g>
</svg>
