<?xml version="1.0" encoding="UTF-8" standalone="no"?>
<!-- Created with Inkscape (http://www.inkscape.org/) -->
<svg xmlns:inkscape="http://www.inkscape.org/namespaces/inkscape" xmlns:rdf="http://www.w3.org/1999/02/22-rdf-syntax-ns#" xmlns="http://www.w3.org/2000/svg" xmlns:cc="http://creativecommons.org/ns#" xmlns:dc="http://purl.org/dc/elements/1.1/" xmlns:sodipodi="http://sodipodi.sourceforge.net/DTD/sodipodi-0.dtd" xmlns:svg="http://www.w3.org/2000/svg" xmlns:ns1="http://sozi.baierouge.fr" xmlns:xlink="http://www.w3.org/1999/xlink" id="svg2" sodipodi:docname="bicycle_for_our_minds.svg" inkscape:export-filename="D:\GR8DAN\My Pictures\Graphics\bicycle_for_our_minds.png" viewBox="0 0 172.02 217.71" sodipodi:version="0.32" inkscape:export-xdpi="78.480003" version="1.0" inkscape:output_extension="org.inkscape.output.svg.inkscape" inkscape:export-ydpi="78.480003" inkscape:version="0.48.2 r9819">
  <g transform="translate(-20,0)">
    <path d="m62.425 190.2c-0.48393-10.605 8.2228-20.789 6.3672-31.434 0.16466-9.1687-3.0002-17.637-8.0707-25.181-5.408-10.42-16.315-16.74-20.303-28.07-9.76-21.955-10.638-48.887 0.793-70.371 17.739-25.062 51.642-34.423 80.838-27.935 19.045 4.1084 40.045 10.941 50.98 28.36 10.966 16.478 10.134 36.907 11.936 55.75 3.1455 8.9771 9.5386 16.281 15.848 23.122 6.3517 11.123-17.857 8.4903-8.8211 20.524-0.51732 5.379-9.4199 2.7945-2.8012 8.7247-1.118 4.4666-6.8545 10.31-1.9206 16.259 3.0713 9.3209-4.6866 15.982-13.577 15.487-10.851 0.51652-22.873 1.181-30.892 9.6-3.9939 7.4231 0.37797 6.4241-0.9829 12.847-4.9636 6.6234 1.2929 16.433-2.2547 22.047-22.515-8.7303-54.626-20.996-77.141-29.726z M94.497 121.76c-8.2626 8.3016-15.281-1.5929-24.425 0.0273-12.43-2.3-9.177-19.76-22.497-18.62-9.45-10.023-7.828-25.017-6.938-37.683 1.608-18.569 13.515-35.057 28.642-45.277 15.495-8.3448 34.016-8.3913 51.1-6.8521 11.891 2.3258 22.751 8.43 33.218 14.316 7.6912 6.1543 15.382 13.526 19.086 22.795 3.1717 10.176 2.2847 25.228-9.0956 29.779-6.2445 1.5404-12.743 1.9534-19.01 3.3578 2.8106 8.7947-2.9377 17.048-11.489 20.369-8.7013 4.0538-19.443-7.7035-22.528 5.9533-6.4855 6.4936 0.27018 22.523-12.696 20.604-5.3414 0.0755-2.7668-5.5769-3.3683-8.773z" sodipodi:nodetypes="ccccccccccccccccc" style="fill-rule:evenodd;stroke:#6a3900;stroke-width:3;fill:#ffd199"/>
  </g>
</svg>
